<?xml version="1.0" encoding="UTF-8"?>
<svg id="Ebene_2" xmlns="http://www.w3.org/2000/svg" version="1.1" viewBox="0 0 332.225 69.654">
  <!-- Generator: Adobe Illustrator 30.3.0, SVG Export Plug-In . SVG Version: 2.1.3 Build 182)  -->
  <defs>
    <style>
      .st0 {
        fill: #b6c932;
      }

      .st1 {
        fill: #fff;
      }
    </style>
  </defs>
  <g>
    <path class="st1" d="M0,.994h20.232c5.253,0,9.891,1.053,13.914,3.159,4.022,2.107,7.146,5.04,9.371,8.803,2.224,3.762,3.337,8.057,3.337,12.885s-1.113,9.122-3.337,12.885c-2.225,3.762-5.349,6.698-9.371,8.803-4.023,2.107-8.661,3.159-13.914,3.159H0V.994ZM19.948,46.143c4.354,0,8.164-.863,11.429-2.591,3.265-1.727,5.797-4.117,7.596-7.17,1.798-3.053,2.698-6.567,2.698-10.542s-.899-7.489-2.698-10.542c-1.799-3.052-4.33-5.442-7.596-7.17-3.265-1.727-7.076-2.591-11.429-2.591H5.253v40.606h14.695Z"/>
    <path class="st0" d="M54.496.994h14.056v49.692h-14.056V.994Z"/>
    <path class="st0" d="M111.854,24.775h12.423v20.587c-2.84,2.036-6.105,3.597-9.797,4.686-3.691,1.088-7.383,1.633-11.074,1.633-5.207,0-9.892-1.1-14.056-3.301-4.165-2.2-7.43-5.264-9.796-9.193-2.367-3.927-3.549-8.376-3.549-13.346s1.182-9.417,3.549-13.346c2.366-3.928,5.655-6.993,9.868-9.193,4.212-2.201,8.968-3.301,14.269-3.301,4.638,0,8.803.781,12.494,2.343,3.692,1.562,6.767,3.81,9.229,6.744l-8.945,8.093c-3.361-3.691-7.383-5.537-12.068-5.537-4.259,0-7.691,1.29-10.293,3.869-2.604,2.58-3.904,6.023-3.904,10.329,0,2.745.591,5.195,1.774,7.347,1.183,2.154,2.84,3.834,4.969,5.04,2.13,1.207,4.567,1.811,7.312,1.811,2.698,0,5.229-.544,7.596-1.633v-13.63Z"/>
    <path class="st0" d="M166.515,24.775h12.423v20.587c-2.84,2.036-6.105,3.597-9.797,4.686-3.691,1.088-7.383,1.633-11.074,1.633-5.207,0-9.892-1.1-14.056-3.301-4.165-2.2-7.43-5.264-9.796-9.193-2.367-3.927-3.549-8.376-3.549-13.346s1.182-9.417,3.549-13.346c2.366-3.928,5.655-6.993,9.868-9.193,4.212-2.201,8.968-3.301,14.269-3.301,4.638,0,8.803.781,12.494,2.343,3.692,1.562,6.767,3.81,9.229,6.744l-8.945,8.093c-3.361-3.691-7.383-5.537-12.068-5.537-4.259,0-7.691,1.29-10.293,3.869-2.604,2.58-3.904,6.023-3.904,10.329,0,2.745.591,5.195,1.774,7.347,1.183,2.154,2.84,3.834,4.969,5.04,2.13,1.207,4.567,1.811,7.312,1.811,2.698,0,5.229-.544,7.596-1.633v-13.63Z"/>
    <path class="st0" d="M187.882.994h14.056v49.692h-14.056V.994Z"/>
    <path class="st1" d="M224.725,5.537h-17.464V.994h40.18v4.543h-17.463v45.149h-5.253V5.537Z"/>
    <path class="st1" d="M280.428,37.412h-27.686l-5.964,13.275h-5.466L264.029.994h5.182l22.716,49.692h-5.537l-5.963-13.275ZM278.511,33.152l-11.926-26.691-11.926,26.691h23.852Z"/>
    <path class="st1" d="M299.145.994h5.253v45.149h27.827v4.543h-33.08V.994Z"/>
  </g>
  <g>
    <path class="st1" d="M53.931,57.802h1.253v11.852h-1.253v-11.852Z"/>
    <path class="st1" d="M70.641,57.802v11.852h-1.033l-7.619-9.616v9.616h-1.253v-11.852h1.033l7.636,9.617v-9.617h1.236Z"/>
    <path class="st1" d="M84.541,63.728h1.202v4.521c-.553.485-1.208.858-1.964,1.117-.756.26-1.552.39-2.387.39-1.186,0-2.252-.26-3.2-.778-.948-.52-1.693-1.239-2.235-2.159-.542-.92-.812-1.949-.812-3.09s.271-2.17.812-3.09c.542-.92,1.287-1.64,2.235-2.158.948-.52,2.021-.779,3.217-.779.903,0,1.732.145,2.489.432.756.288,1.394.714,1.913,1.278l-.779.796c-.937-.926-2.127-1.389-3.572-1.389-.959,0-1.826.212-2.599.636-.773.423-1.38,1.01-1.82,1.761-.44.75-.66,1.589-.66,2.514s.22,1.761.66,2.506c.44.745,1.044,1.332,1.812,1.761.767.429,1.631.644,2.59.644,1.219,0,2.251-.305,3.098-.914v-3.996Z"/>
    <path class="st1" d="M92.964,68.968c-.954-.525-1.699-1.244-2.235-2.159-.536-.914-.804-1.94-.804-3.081s.268-2.167.804-3.081,1.281-1.634,2.235-2.159c.954-.524,2.018-.787,3.191-.787s2.232.26,3.174.779c.942.519,1.685,1.238,2.227,2.158.542.92.812,1.95.812,3.09s-.271,2.17-.812,3.09c-.542.92-1.284,1.64-2.227,2.159-.942.519-2,.778-3.174.778s-2.238-.263-3.191-.787ZM98.695,68.003c.756-.424,1.349-1.011,1.778-1.761.429-.751.643-1.589.643-2.515s-.214-1.764-.643-2.514c-.429-.751-1.022-1.338-1.778-1.761-.756-.424-1.603-.636-2.54-.636s-1.786.212-2.548.636c-.762.423-1.36,1.01-1.795,1.761-.435.75-.652,1.589-.652,2.514s.217,1.764.652,2.515c.435.75,1.033,1.337,1.795,1.761.762.423,1.611.635,2.548.635s1.783-.212,2.54-.635Z"/>
    <path class="st1" d="M113.737,69.332c-.807-.282-1.431-.655-1.871-1.118l.491-.965c.429.43.999.776,1.71,1.041.711.266,1.445.398,2.201.398,1.061,0,1.856-.195,2.387-.584.53-.39.795-.895.795-1.516,0-.474-.144-.852-.432-1.135-.288-.281-.641-.499-1.058-.651s-.999-.318-1.744-.499c-.892-.227-1.603-.443-2.133-.652-.531-.209-.985-.527-1.363-.956-.378-.43-.567-1.011-.567-1.744,0-.599.158-1.143.474-1.634s.801-.883,1.456-1.177c.654-.293,1.467-.44,2.438-.44.677,0,1.34.094,1.989.279.649.187,1.21.443,1.685.771l-.423.999c-.497-.327-1.027-.573-1.591-.736-.564-.164-1.118-.246-1.659-.246-1.039,0-1.82.201-2.345.602-.525.4-.788.917-.788,1.549,0,.475.144.855.432,1.143.288.288.649.509,1.084.661.434.152,1.018.318,1.752.499.869.215,1.572.426,2.108.635s.991.525,1.363.948c.373.423.559.996.559,1.719,0,.598-.161,1.143-.483,1.634-.321.49-.815.88-1.481,1.168s-1.484.432-2.455.432c-.88,0-1.724-.141-2.531-.423Z"/>
    <path class="st1" d="M127.239,58.886h-4.165v-1.084h9.583v1.084h-4.165v10.768h-1.253v-10.768Z"/>
    <path class="st1" d="M144.728,68.57v1.084h-8.38v-11.852h8.126v1.084h-6.874v4.216h6.128v1.066h-6.128v4.401h7.127Z"/>
    <path class="st1" d="M157.358,58.886c.857.723,1.287,1.716,1.287,2.979s-.429,2.255-1.287,2.972c-.858.717-2.043,1.075-3.556,1.075h-3.183v3.741h-1.253v-11.852h4.436c1.513,0,2.698.361,3.556,1.084ZM156.461,64.041c.621-.514.931-1.238.931-2.176,0-.959-.311-1.695-.931-2.209-.621-.514-1.518-.771-2.692-.771h-3.149v5.926h3.149c1.174,0,2.071-.257,2.692-.771Z"/>
    <path class="st1" d="M172.951,57.802v11.852h-1.236v-5.469h-7.416v5.469h-1.253v-11.852h1.253v5.282h7.416v-5.282h1.236Z"/>
    <path class="st1" d="M185.937,66.488h-6.603l-1.422,3.166h-1.304l5.418-11.852h1.236l5.418,11.852h-1.321l-1.422-3.166ZM185.479,65.472l-2.844-6.366-2.844,6.366h5.688Z"/>
    <path class="st1" d="M202.241,57.802v11.852h-1.033l-7.619-9.616v9.616h-1.253v-11.852h1.033l7.636,9.617v-9.617h1.236Z"/>
  </g>
</svg>